<svg width="20" height="20" viewBox="0 0 20 20" fill="none" xmlns="http://www.w3.org/2000/svg">
<path fill-rule="evenodd" clip-rule="evenodd" d="M10 0C15.51 0 20 4.49 20 10C20 12.9 18.75 15.51 16.76 17.34C16.7658 17.3458 16.7682 17.3482 16.7692 17.3511C16.77 17.3533 16.77 17.3558 16.77 17.36C16.67 17.45 16.56 17.54 16.4501 17.6299L16.45 17.63C16.4091 17.6572 16.3729 17.6891 16.335 17.7225C16.3173 17.7381 16.2991 17.7541 16.28 17.77C16.1 17.92 15.91 18.06 15.71 18.2C15.689 18.215 15.669 18.2299 15.6493 18.2446C15.6032 18.279 15.559 18.312 15.51 18.34C15.3767 18.4267 15.2433 18.5044 15.11 18.5822C15.0433 18.6211 14.9767 18.66 14.91 18.7C14.8833 18.7152 14.8567 18.7319 14.8295 18.7489C14.7852 18.7766 14.7395 18.8052 14.69 18.83C14.48 18.94 14.27 19.04 14.06 19.13L14.06 19.13C13.98 19.17 13.9 19.21 13.82 19.24C13.68 19.3 13.5311 19.3511 13.3822 19.4022C13.3078 19.4278 13.2333 19.4533 13.16 19.48C13.08 19.5 13 19.53 12.92 19.56C12.7504 19.619 12.5699 19.6617 12.3906 19.7041C12.3267 19.7192 12.263 19.7342 12.2 19.75C12.1574 19.7553 12.1177 19.7663 12.0792 19.7769C12.0455 19.7863 12.0127 19.7953 11.98 19.8C11.7 19.86 11.42 19.9 11.13 19.93L11.13 19.93C11.09 19.94 11.05 19.95 11.01 19.95C10.68 19.98 10.34 20 10 20C9.66 20 9.32 19.98 8.98 19.95L8.97997 19.95C8.93998 19.94 8.89999 19.93 8.86 19.93C8.57 19.9 8.29 19.86 8.01 19.8C7.93 19.79 7.86 19.77 7.79 19.75C7.55 19.69 7.31 19.63 7.07 19.56C6.99 19.54 6.91 19.51 6.83 19.48C6.61 19.41 6.39 19.33 6.17 19.24C6.09001 19.21 6.01002 19.17 5.93003 19.13L5.93 19.13C5.71 19.04 5.5 18.94 5.3 18.83C5.26499 18.81 5.22748 18.7875 5.18997 18.765C5.15248 18.7425 5.11499 18.72 5.08 18.7C4.87 18.59 4.67 18.47 4.48 18.34C4.44499 18.315 4.41248 18.2925 4.37997 18.27C4.34748 18.2475 4.31499 18.225 4.28 18.2C4.23656 18.168 4.19259 18.136 4.14846 18.1038C3.99959 17.9955 3.84884 17.8857 3.71 17.77C3.66913 17.7428 3.6329 17.7109 3.59499 17.6775C3.57724 17.6619 3.55913 17.6459 3.54 17.63C3.49811 17.5923 3.4527 17.5563 3.40673 17.5199C3.34297 17.4695 3.27811 17.4181 3.22 17.36C3.23 17.35 3.23 17.35 3.23 17.34C1.25 15.51 0 12.9 0 10C0 4.49 4.49 0 10 0ZM5.06 14.97C7.79 13.15 12.23 13.15 14.94 14.97C15.38 15.26 15.75 15.6 16.04 15.97C17.56 14.43 18.5 12.32 18.5 10C18.5 5.31 14.69 1.5 10 1.5C5.31 1.5 1.5 5.31 1.5 10C1.5 12.32 2.44 14.43 3.96 15.97C4.26 15.6 4.62 15.26 5.06 14.97ZM6.25 8.6797C6.25 6.60969 7.93 4.92969 10 4.92969C12.07 4.92969 13.75 6.60969 13.75 8.6797C13.74 10.7097 12.15 12.3497 10.13 12.4197H10.11H10.04H9.95C7.84 12.3597 6.25 10.7097 6.25 8.6797Z" fill="white"/>
</svg>
