<svg width="24" height="24" viewBox="0 0 24 24" fill="none" xmlns="http://www.w3.org/2000/svg">
<rect x="1" y="1" width="22" height="22" rx="6" stroke="black" stroke-width="2"/>
<path fill-rule="evenodd" clip-rule="evenodd" d="M11 16C11 16.5523 11.4477 17 12 17C12.5523 17 13 16.5523 13 16V13H16C16.5523 13 17 12.5523 17 12C17 11.4477 16.5523 11 16 11H13V8C13 7.44771 12.5523 7 12 7C11.4477 7 11 7.44771 11 8L11 11H8C7.44772 11 7 11.4477 7 12C7 12.5523 7.44772 13 8 13H11L11 16Z" fill="black"/>
</svg>
