<svg width="16" height="16" viewBox="0 0 16 16" fill="none" xmlns="http://www.w3.org/2000/svg">
<path opacity="0.5" fill-rule="evenodd" clip-rule="evenodd" d="M3.20001 7.20002C3.20001 4.99089 4.99089 3.20001 7.20002 3.20001C9.40914 3.20001 11.2 4.99089 11.2 7.20002C11.2 9.40914 9.40914 11.2 7.20002 11.2C4.99089 11.2 3.20001 9.40914 3.20001 7.20002ZM7.20002 0C3.22356 0 0 3.22356 0 7.20002C0 11.1765 3.22356 14.4 7.20002 14.4C8.60882 14.4 9.92323 13.9954 11.0331 13.296L13.2687 15.5314C13.8935 16.1562 14.9066 16.1562 15.5314 15.5314C16.1562 14.9066 16.1562 13.8935 15.5314 13.2687L13.296 11.0331C13.9954 9.92323 14.4 8.60882 14.4 7.20002C14.4 3.22356 11.1765 0 7.20002 0Z" fill="#323232"/>
</svg>
