<svg width="17" height="18" viewBox="0 0 17 18" fill="none" xmlns="http://www.w3.org/2000/svg">
<path fill-rule="evenodd" clip-rule="evenodd" d="M3.43575 12.6379C4.40385 12.6379 5.27574 12.2119 5.89845 11.5318L10.1663 13.8342C10.1419 14.0054 10.1285 14.1815 10.1285 14.3621C10.1285 16.3712 11.6669 18 13.5642 18C15.4616 18 17 16.3712 17 14.3621C17 12.3531 15.4616 10.7243 13.5643 10.7243C12.5546 10.7243 11.6487 11.1865 11.0212 11.9187L6.81628 9.65024C6.85238 9.43912 6.87125 9.2218 6.87125 9C6.87125 8.77819 6.85237 8.56087 6.81627 8.34975L11.0211 6.08112C11.6485 6.81334 12.5547 7.27571 13.5643 7.27571C15.4616 7.27571 17 5.64686 17 3.63785C17 1.62885 15.4616 1.80975e-06 13.5643 1.68938e-06C11.6669 1.569e-06 10.1285 1.62885 10.1285 3.63785C10.1285 3.8183 10.1419 3.99439 10.1663 4.16553L5.89838 6.46819C5.27562 5.78811 4.40394 5.36215 3.43575 5.36215C1.53836 5.36215 -5.8111e-07 6.991 -8.23131e-07 9C-1.06519e-06 11.0093 1.53838 12.6379 3.43575 12.6379ZM15.5 14.3621C15.5 13.2321 14.6318 12.3125 13.5643 12.3125C12.497 12.3125 11.6285 13.2321 11.6285 14.3621C11.6285 15.4924 12.497 16.4118 13.5642 16.4118C14.6317 16.4118 15.5 15.4924 15.5 14.3621ZM15.5 3.63785C15.5 2.50756 14.6318 1.58824 13.5643 1.58824C12.497 1.58824 11.6285 2.50756 11.6285 3.63785C11.6285 4.76788 12.497 5.68747 13.5643 5.68747C14.6315 5.68747 15.5 4.76788 15.5 3.63785ZM5.3715 9C5.3715 7.86997 4.503 6.95038 3.43575 6.95038C2.36825 6.95038 1.5 7.86997 1.5 9C1.5 10.1303 2.36825 11.0496 3.43575 11.0496C4.503 11.0496 5.3715 10.1303 5.3715 9Z" fill="white"/>
</svg>
