<svg width="20" height="21" viewBox="0 0 20 21" fill="none" xmlns="http://www.w3.org/2000/svg">
<path fill-rule="evenodd" clip-rule="evenodd" d="M5.48868 15.1278L5.4886 15.1277C2.37123 12.0446 0.858042 9.63157 0.284306 7.71277C-0.306954 5.73536 0.114425 4.31279 0.730407 3.43576C0.950868 3.098 1.58613 2.24639 2.50854 1.60543C3.04833 1.23034 3.79327 0.852584 4.69105 0.787568C5.64175 0.718719 6.5897 1.01417 7.4376 1.70116L7.44087 1.70381L7.44086 1.70381C8.8598 2.85943 9.76831 3.92649 10.1204 5.06093C10.5098 6.3159 10.11 7.30428 9.8616 7.87722C9.58125 8.5239 9.57505 8.56651 9.58523 8.65588C9.59073 8.70407 9.65211 9.10657 10.608 9.99811C11.5587 10.8847 12.0026 10.9633 12.1043 10.9726C12.2403 10.9851 12.3007 10.9628 12.936 10.7044C13.5263 10.4643 14.5107 10.1062 15.7582 10.5318C16.8579 10.9069 17.9057 11.8068 19.0638 13.1972L19.0667 13.2007C19.7613 14.0393 20.06 14.9768 19.9904 15.9169C19.9247 16.8048 19.5428 17.5414 19.1635 18.0753C18.5173 18.9848 17.6588 19.6126 17.3138 19.8327C16.4264 20.4429 14.9873 20.8594 12.9878 20.2749C11.047 19.7075 8.60652 18.2109 5.48868 15.1278ZM16.3842 18.4643C16.5276 18.3841 19.5512 16.3869 17.7773 14.245C15.4473 11.4475 14.4554 11.8599 13.4124 12.2937C12.4744 12.6838 11.4952 13.091 9.4645 11.1971C7.42066 9.29096 7.84492 8.32849 8.26761 7.36956C8.73194 6.31618 9.19438 5.26709 6.38131 2.97606C4.21627 1.2219 2.19651 4.21179 2.11457 4.35452C1.4767 5.23758 0.61627 7.97794 6.66719 13.9623C12.719 19.9467 15.4912 19.0959 16.3842 18.4643Z" fill="black"/>
</svg>
