<svg width="29" height="10" viewBox="0 0 29 10" fill="none" xmlns="http://www.w3.org/2000/svg">
<path fill-rule="evenodd" clip-rule="evenodd" d="M0 6.54849C0.0802466 6.10472 0.304465 5.83001 0.748182 5.81357C0.710419 5.34867 0.795386 4.95656 1.00072 4.63489C1.09749 4.48462 1.21786 4.35079 1.36419 4.23339C1.87872 3.8178 2.45932 3.77319 3.09422 3.65814C3.70787 3.54778 4.32388 3.45386 4.93753 3.38108C5.68099 3.2942 6.42445 3.2355 7.16555 3.21437C7.51014 3.20498 7.42753 3.22376 7.69896 3.01479C9.03483 1.98638 10.4911 1.14346 12.0181 0.413243C12.5515 0.152618 13.2313 0.0234797 14.0314 0C15.6292 0 17.2247 0 18.8226 0C19.8799 0.00469594 20.7792 0.246537 21.5368 0.699695L24.4422 2.92322C25.4099 2.98662 26.3799 3.05001 27.3476 3.11341C27.94 3.09697 28.3955 3.2989 28.5678 3.93989V5.89105C29.3892 6.10002 28.8534 7.98309 28.4852 8.39634C28.1595 8.76027 27.8668 8.71801 27.4302 8.71801H24.8411C25.3391 4.99413 21.5226 4.19817 19.9507 6.22681C19.4315 6.89599 19.3536 7.80935 19.5684 8.88237H7.81225C8.4141 6.1235 6.62271 4.99883 4.97529 5.16084C2.85584 5.36746 2.29883 7.05799 2.6623 8.91524H0.828429C0.304465 8.93872 0.0613651 8.52313 0 7.82108V6.54849ZM22.1622 5.81122C23.3258 5.81122 24.2675 6.74806 24.2675 7.90561C24.2675 9.06316 23.3258 10 22.1622 10C20.9987 10 20.0569 9.06316 20.0569 7.90561C20.0569 6.74806 20.9987 5.81122 22.1622 5.81122ZM5.50398 6.90538V7.65907H6.2616C6.16955 7.2881 5.87689 6.99695 5.50398 6.90538ZM6.2616 8.15215H5.50398V8.90585C5.87689 8.81428 6.16955 8.52313 6.2616 8.15215ZM5.00833 8.90585V8.15215H4.25071C4.34276 8.52313 4.63542 8.81428 5.00833 8.90585ZM4.25071 7.65907H5.00833V6.90538C4.63542 6.99695 4.34276 7.2881 4.25071 7.65907ZM22.4101 6.90538V7.65907H23.1677C23.0756 7.2881 22.783 6.99695 22.4101 6.90538ZM23.1677 8.15215H22.4101V8.90585C22.783 8.81428 23.0756 8.52313 23.1677 8.15215ZM21.9144 8.90585V8.15215H21.1568C21.2488 8.52313 21.5415 8.81428 21.9144 8.90585ZM21.1568 7.65907H21.9144V6.90538C21.5415 6.99695 21.2488 7.2881 21.1568 7.65907ZM5.25616 5.81122C6.41973 5.81122 7.36145 6.74806 7.36145 7.90561C7.36145 9.06316 6.41973 10 5.25616 10C4.09258 10 3.15086 9.06316 3.15086 7.90561C3.15086 6.74806 4.09258 5.81122 5.25616 5.81122ZM20.4936 3.71683L20.8901 1.39704L22.2826 3.14158L22.0206 3.43743L21.7728 3.71683H20.4936ZM9.08203 2.78939V3.69101H14.9518L15.379 0.551773H13.7694C12.7687 0.669171 12.6058 0.702043 11.6948 1.18103C10.9466 1.57549 10.2621 2.01221 9.53283 2.48415C9.38414 2.58511 9.23072 2.68608 9.08203 2.78939ZM16.3042 0.516553L15.8298 3.69101H20.0522L20.47 0.852313C18.7305 0.432026 18.0012 0.516553 16.3042 0.516553Z" fill="#51535B"/>
</svg>
