<svg width="16" height="20" viewBox="0 0 16 20" fill="none" xmlns="http://www.w3.org/2000/svg">
<path fill-rule="evenodd" clip-rule="evenodd" d="M7.02496 0.944881C7.02496 0.422929 7.44686 0 7.96788 0C8.4885 0 8.91091 0.422929 8.91095 0.944881V5.63792C8.91095 5.74909 8.9005 5.85175 8.88405 5.95362C8.86771 6.0555 8.84447 6.1562 8.815 6.258C8.75667 6.46198 8.67428 6.67245 8.56554 6.88917C8.34783 7.32088 8.02363 7.77928 7.56383 8.1892C7.25773 8.46182 6.89084 8.71057 6.46324 8.90432C6.24416 9.00393 6.00883 9.08787 5.75968 9.15424V19.4724C5.75968 19.764 5.52384 20 5.23271 20H4.45553H3.67848C3.38742 20 3.15158 19.764 3.15158 19.4724V9.15342C2.95238 9.10037 2.76169 9.03713 2.58175 8.96252C2.04015 8.73842 1.59072 8.42612 1.23272 8.08401C0.993757 7.85534 0.794639 7.61393 0.630534 7.37284C0.411765 7.05061 0.255184 6.73143 0.150186 6.42991C0.090338 6.25632 0.047138 6.08925 0.021639 5.9196C0.00830473 5.82882 0.000311914 5.7369 0 5.63792V1.11879V0.944881C0 0.422929 0.422409 0 0.943266 0C1.46405 0 1.8863 0.422929 1.88626 0.944881V4.56277C1.88626 5.01237 2.25026 5.37718 2.69919 5.37718C3.14842 5.37718 3.51227 5.01237 3.51227 4.56277V1.18371V1.01012C3.51227 0.488397 3.93452 0.0651952 4.45549 0.0651952C4.97651 0.0651952 5.39892 0.488437 5.39892 1.01012V4.56277C5.39892 5.01237 5.76276 5.37718 6.21184 5.37718C6.66088 5.37718 7.02496 5.01237 7.02496 4.56277V1.11879V0.944881ZM14.7684 0.0463265C15.0404 -0.0421108 15.3391 -0.00324373 15.5795 0.157342C15.8421 0.332185 16 0.627068 16 0.943122V8.27186V8.70131V8.91444V9.44732V19.4603C16 19.7584 15.7587 19.9999 15.4612 19.9999H14.7683H13.8724C13.5752 19.9999 13.3338 19.7584 13.3338 19.4603V12.1154C13.3338 12.1154 11.3659 10.39 11.1906 10.1798C11.0152 9.97017 10.9397 9.69385 10.9831 9.42361L11.6281 1.84074C11.6802 1.51863 11.8944 1.24609 12.1951 1.12027L14.6937 0.0721468C14.7183 0.0619515 14.7433 0.054139 14.7684 0.0463265Z" fill="#51535B"/>
</svg>
