<svg width="19" height="20" viewBox="0 0 19 20" fill="none" xmlns="http://www.w3.org/2000/svg">
<path fill-rule="evenodd" clip-rule="evenodd" d="M11.5178 2.08336C11.5178 3.23419 10.5826 4.16669 9.42843 4.16669C8.27511 4.16669 7.33905 3.23419 7.33909 2.08332C7.33909 0.932502 8.27428 0 9.42843 0C10.5826 0 11.5178 0.932502 11.5178 2.08336ZM17.4398 2.91668C17.4398 4.06751 16.5046 5.00001 15.3505 5.00001C14.1972 5.00001 13.2611 4.06751 13.2612 2.91668C13.2612 1.76586 14.1964 0.83336 15.3505 0.83336C16.5046 0.83336 17.4398 1.76668 17.4398 2.91668ZM3.6501 5.00001C4.80424 5.00001 5.73944 4.06751 5.73944 2.91668C5.73944 1.76668 4.80424 0.83336 3.6501 0.83336C2.49677 0.83336 1.56075 1.76668 1.56075 2.91668C1.56075 4.06751 2.49677 5.00001 3.6501 5.00001ZM18.4544 7.65837L18.9901 11.9292C19.0353 12.285 18.9241 12.6417 18.6867 12.9108C18.4669 13.1592 18.1585 13.3092 17.8292 13.3308L17.4389 18.78C17.423 18.9975 17.2408 19.1667 17.0219 19.1667H13.6789C13.4591 19.1667 13.2778 18.9975 13.2619 18.7792L12.9335 14.195C12.9226 14.0509 12.9886 13.9109 13.1073 13.8267C13.2552 13.7209 13.368 13.6242 13.46 13.5209C13.8829 13.0484 14.0834 12.41 14.0107 11.7692L13.4566 6.92919C13.4374 6.76669 13.399 6.61005 13.358 6.45587C13.302 6.24587 13.4165 6.02837 13.6221 5.95587C13.852 5.87419 14.086 5.83337 14.3183 5.83337H16.3818C17.4331 5.83337 18.324 6.61837 18.4544 7.65837ZM5.86398 13.9083C5.68428 13.7958 5.52719 13.6658 5.39681 13.5217C4.97391 13.0492 4.77333 12.4108 4.84604 11.77L5.40014 6.92997C5.4202 6.75497 5.45949 6.58665 5.50544 6.42247C5.53553 6.31497 5.52049 6.19997 5.46451 6.10247C5.40935 6.00579 5.31658 5.93579 5.20877 5.90747C5.01571 5.85747 4.84855 5.83415 4.68143 5.83415H2.61794C1.56659 5.83415 0.67484 6.61833 0.545287 7.65915L0.0096023 11.9292C-0.0347051 12.285 0.0756129 12.6425 0.313799 12.9117C0.533613 13.16 0.842001 13.31 1.17127 13.3317L1.56158 18.7809C1.57744 18.9992 1.75882 19.1676 1.9786 19.1676H5.32155C5.54051 19.1676 5.72271 18.9984 5.73858 18.7809L6.06032 14.2917C6.07208 14.1367 5.99604 13.9892 5.86398 13.9083ZM12.626 7.02337L13.1801 11.8642C13.226 12.2683 13.1015 12.6717 12.8373 12.9667C12.6092 13.2208 12.3075 13.3692 11.979 13.3875L11.5177 19.6142C11.501 19.8317 11.3196 20 11.1007 20H7.75772C7.53876 20 7.35656 19.8309 7.34069 19.6142L6.87936 13.3875C6.55178 13.3692 6.24923 13.2217 6.02107 12.9667C5.75613 12.67 5.63077 12.2683 5.67758 11.8633L6.23168 7.02333C6.36292 5.87001 7.2797 5.00001 8.362 5.00001H10.4956C11.5779 5.00001 12.4939 5.87001 12.626 7.02337Z" fill="#51535B"/>
</svg>
