<svg width="24" height="20" viewBox="0 0 24 20" fill="none" xmlns="http://www.w3.org/2000/svg">
<path d="M16 11.2C16 13.4056 14.2056 15.2 12 15.2C9.7944 15.2 8 13.4056 8 11.2C8 8.9944 9.7944 7.2 12 7.2C14.2056 7.2 16 8.9944 16 11.2ZM2.4 7.2H4.8V5.6H2.4V7.2ZM17.6 11.2C17.6 14.288 15.088 16.8 12 16.8C8.912 16.8 6.4 14.288 6.4 11.2C6.4 8.112 8.912 5.6 12 5.6C15.088 5.6 17.6 8.112 17.6 11.2ZM16.8 11.2C16.8 8.5488 14.6512 6.4 12 6.4C9.3488 6.4 7.2 8.5488 7.2 11.2C7.2 13.8512 9.3488 16 12 16C14.6512 16 16.8 13.8512 16.8 11.2ZM24 5.6V17.6C24 18.9256 22.9256 20 21.6 20H2.4C1.0744 20 0 18.9256 0 17.6V5.6C0 4.2744 1.0744 3.2 2.4 3.2H6.4L7.3368 1.3264C7.7432 0.5136 8.5744 0 9.4832 0H14.5168C15.4256 0 16.2568 0.5136 16.6632 1.3264L17.6 3.2H21.6C22.9256 3.2 24 4.2744 24 5.6ZM5.6 7.2V5.6C5.6 5.1584 5.2416 4.8 4.8 4.8H2.4C1.9584 4.8 1.6 5.1584 1.6 5.6V7.2C1.6 7.6416 1.9584 8 2.4 8H4.8C5.2416 8 5.6 7.6416 5.6 7.2ZM18.4 11.2C18.4 7.6656 15.5344 4.8 12 4.8C8.4656 4.8 5.6 7.6656 5.6 11.2C5.6 14.7344 8.4656 17.6 12 17.6C15.5344 17.6 18.4 14.7344 18.4 11.2Z" fill="#51535B"/>
</svg>
