<svg width="20" height="16" viewBox="0 0 20 16" fill="none" xmlns="http://www.w3.org/2000/svg">
<path fill-rule="evenodd" clip-rule="evenodd" d="M0.900568 8.61617C0.705262 8.38551 0.729607 8.04492 0.955254 7.85584C2.40088 6.64252 2.47593 6.06887 2.67633 4.53571C2.70445 4.32049 2.73355 4.09787 2.76923 3.85172C2.89827 2.9614 3.38071 2.54509 3.76278 2.35274C4.16055 2.15243 4.62589 2.1017 5.09127 2.13307L5.11548 1.83809C5.14484 1.48072 5.42436 1.20121 5.78172 1.17184L10.5967 0.776507C10.819 0.758245 11.0405 0.840467 11.2007 1.00067L19.1309 8.93083C19.4276 9.22748 19.4338 9.70212 19.145 9.99101L13.9347 15.2013C13.6458 15.4902 13.1711 15.4839 12.8745 15.1872L4.94433 7.25709C4.78412 7.09688 4.7019 6.87538 4.72016 6.65302L5.00313 3.20688C4.72519 3.19113 4.46849 3.21996 4.26897 3.3204C4.1176 3.39658 3.90828 3.55356 3.8386 4.03437C3.80403 4.27313 3.77537 4.49196 3.74774 4.70358L3.74766 4.70413C3.56494 6.10207 3.45304 6.9582 2.29743 8.11376C2.11372 8.29747 1.90349 8.48884 1.66263 8.69101C1.4371 8.88029 1.09594 8.8468 0.900568 8.61617ZM6.3954 2.3987C6.97124 2.58265 7.41023 2.80039 7.51141 2.85223C7.77975 2.98969 7.89163 3.31583 7.76124 3.58062C7.73529 3.63333 7.70169 3.67963 7.6624 3.71892C7.50432 3.877 7.25418 3.92132 7.0392 3.81124C6.83778 3.70808 6.45063 3.53985 6.01398 3.40629C6.03897 3.6995 6.16494 3.98818 6.39191 4.21515C6.89294 4.71617 7.69461 4.72677 8.1825 4.23888C8.67039 3.75099 8.65976 2.9493 8.15876 2.4483C7.66689 1.95643 6.88543 1.93756 6.3954 2.3987ZM14.0586 6.21856L13.2744 5.43444C12.7278 4.88779 12.1794 5.03853 11.7224 5.49559C11.2707 5.94729 11.1146 6.50102 11.6612 7.04768L12.4453 7.83179C12.992 8.37844 13.5457 8.22233 13.9974 7.77062C14.4544 7.31359 14.6052 6.76523 14.0586 6.21856ZM10.9711 11.294L11.7552 12.0781C12.3018 12.6247 12.8555 12.4686 13.3072 12.0169C13.7643 11.5599 13.9151 11.0115 13.3684 10.4649L12.5843 9.68074C12.0376 9.13409 11.4893 9.28481 11.0322 9.74189C10.5804 10.1936 10.4244 10.7473 10.9711 11.294ZM9.31503 8.03546C9.34816 8.0686 9.39219 8.10188 9.44141 8.11888L15.3155 10.2073C15.436 10.2525 15.5934 10.2055 15.6956 10.1033C15.8784 9.9205 15.8421 9.64757 15.7041 9.50954C15.6709 9.4764 15.6215 9.44849 15.5723 9.43154L9.70352 7.33773C9.56665 7.28687 9.43644 7.32875 9.33964 7.42555C9.18907 7.57612 9.13835 7.85878 9.31503 8.03546ZM12.2028 5.97602C12.3694 5.80933 12.5491 5.79539 12.7313 5.97758L13.5154 6.76169C13.6976 6.94391 13.6836 7.12353 13.517 7.29022C13.3502 7.45693 13.1652 7.47629 12.983 7.29407L12.1989 6.50995C12.0167 6.32774 12.036 6.14273 12.2028 5.97602ZM12.0411 10.2238C11.8589 10.0416 11.6793 10.0556 11.5126 10.2223C11.3459 10.389 11.3265 10.574 11.5088 10.7562L12.2929 11.5403C12.4751 11.7225 12.6601 11.7032 12.8268 11.5365C12.9935 11.3698 13.0075 11.1901 12.8253 11.0079L12.0411 10.2238Z" fill="#51535B"/>
</svg>
